<?xml version="1.0" encoding="utf-8"?>
<!-- Generator: Adobe Illustrator 14.0.0, SVG Export Plug-In . SVG Version: 6.00 Build 43363)  -->
<!DOCTYPE svg PUBLIC "-//W3C//DTD SVG 1.1//EN" "http://www.w3.org/Graphics/SVG/1.1/DTD/svg11.dtd">
<svg version="1.1" id="Calque_1" xmlns="http://www.w3.org/2000/svg" xmlns:xlink="http://www.w3.org/1999/xlink" x="0px" y="0px"
	 width="29.901px" height="40.549px" viewBox="0 0 29.901 40.549" enable-background="new 0 0 29.901 40.549" xml:space="preserve">
<path d="M22.973,27.426c4.071-2.635,6.771-7.207,6.771-12.419c0-8.17-6.625-14.792-14.794-14.792
	c-8.171,0-14.793,6.622-14.793,14.792c0,8.171,6.623,14.794,14.793,14.794c1.672,0,3.273-0.289,4.772-0.799l6.182,10.84
	c0.336,0.582,1.303,0.662,2.17,0.17c0.864-0.496,1.293-1.369,0.959-1.955L22.973,27.426z M2.935,15.007
	c0-6.635,5.379-12.014,12.015-12.014c6.637,0,12.015,5.379,12.015,12.014c0,6.638-5.378,12.017-12.015,12.017
	C8.314,27.023,2.935,21.645,2.935,15.007z"/>
</svg>
